<svg xmlns="http://www.w3.org/2000/svg" viewBox="0 0 120.96 120.24"><defs><style>.cls-1{fill:#fff;}.cls-2{fill:#00432c;}.cls-3{font-size:12.67px;font-family:Nexa-Heavy, Nexa;font-weight:800;}.cls-3,.cls-8{fill:#1e4531;}.cls-4{letter-spacing:-0.01em;}.cls-5{letter-spacing:-0.01em;}.cls-6{letter-spacing:-0.01em;}.cls-7{letter-spacing:0em;}.cls-9{fill:#2b9464;}</style></defs><g id="Capa_2" data-name="Capa 2"><g id="Capa_1-2" data-name="Capa 1"><polygon class="cls-1" points="87.22 70.84 70.8 75.67 70.8 34.52 87.22 29.7 87.22 70.84"/><rect class="cls-1" x="34.27" y="34.52" width="35.01" height="41.15"/><path class="cls-2" d="M70.8,63.33a.59.59,0,0,1-.61-.57V40.5a.61.61,0,0,1,1.21,0V62.76A.58.58,0,0,1,70.8,63.33Z"/><path class="cls-2" d="M70.8,76.23h-35a.58.58,0,0,1-.6-.56V34.52a.59.59,0,0,1,.6-.57h35a.59.59,0,0,1,.6.57v2.77a.61.61,0,0,1-1.21,0v-2.2H36.39v40h33.8v-8a.61.61,0,0,1,1.21,0v8.59A.58.58,0,0,1,70.8,76.23Z"/><polygon class="cls-2" points="35.78 34.38 35.78 75.67 49.47 71.05 49.47 29.77 35.78 34.38"/><path class="cls-2" d="M35.78,76.23a.59.59,0,0,1-.34-.1.53.53,0,0,1-.26-.46V34.38a.56.56,0,0,1,.4-.53l13.68-4.62a.66.66,0,0,1,.55.07.57.57,0,0,1,.26.47V71.05a.58.58,0,0,1-.4.54L36,76.2A.76.76,0,0,1,35.78,76.23Zm.61-41.45V74.86l12.47-4.21V30.57Z"/><polygon class="cls-1" points="32.72 26.88 32.72 68.16 49.47 71.05 49.47 29.77 32.72 26.88"/><path class="cls-2" d="M49.46,71.62h-.1L32.61,68.72a.58.58,0,0,1-.49-.56V26.88a.56.56,0,0,1,.22-.44.61.61,0,0,1,.49-.12l16.74,2.89a.58.58,0,0,1,.5.56V71.05a.56.56,0,0,1-.22.44A.59.59,0,0,1,49.46,71.62ZM33.33,67.69l15.53,2.68V30.24L33.33,27.56Z"/><path class="cls-2" d="M70.8,76.24a.61.61,0,0,1-.58-.4.57.57,0,0,1,.4-.72l16-4.7V30.47L71,35.06a.61.61,0,0,1-.76-.37.56.56,0,0,1,.4-.71L87,29.15a.64.64,0,0,1,.54.09.56.56,0,0,1,.25.46V70.84a.56.56,0,0,1-.42.54L71,76.21A.57.57,0,0,1,70.8,76.24Z"/><ellipse class="cls-2" cx="63.51" cy="69.11" rx="2.07" ry="1.95"/><path class="cls-2" d="M63.51,66.2a.49.49,0,0,1-.51-.47v-1.9a.51.51,0,0,1,1,0v1.9A.49.49,0,0,1,63.51,66.2Zm0-3.79a.49.49,0,0,1-.51-.47V60.05a.51.51,0,0,1,1,0v1.89A.49.49,0,0,1,63.51,62.41Zm0-3.78a.5.5,0,0,1-.51-.47,1.77,1.77,0,0,0-.62-1.35.46.46,0,0,1,0-.67.52.52,0,0,1,.71,0,2.76,2.76,0,0,1,.94,2,.49.49,0,0,1-.5.48ZM60.89,56.3h-2a.5.5,0,0,1-.51-.48.49.49,0,0,1,.51-.47h2a.48.48,0,0,1,.5.47A.49.49,0,0,1,60.89,56.3Zm-4,0h0a3.06,3.06,0,0,1-2.1-1,.45.45,0,0,1,.06-.66.52.52,0,0,1,.71,0,2,2,0,0,0,1.4.67.49.49,0,0,1,.47.5A.49.49,0,0,1,56.86,56.29ZM54.53,53.7a.49.49,0,0,1-.51-.47v-1.9a.49.49,0,0,1,.51-.47.48.48,0,0,1,.5.47v1.9A.48.48,0,0,1,54.53,53.7Zm0-3.79a.49.49,0,0,1-.51-.47V47.55a.5.5,0,0,1,.51-.48.49.49,0,0,1,.5.48v1.89A.48.48,0,0,1,54.53,49.91Zm0-3.78a.49.49,0,0,1-.51-.48V43.76a.49.49,0,0,1,.51-.47.48.48,0,0,1,.5.47v1.89A.48.48,0,0,1,54.53,46.13Z"/><path class="cls-2" d="M56.55,41.85a.6.6,0,0,1-.42-.16l-4.05-3.81a.53.53,0,0,1,0-.8.61.61,0,0,1,.85,0l4,3.8a.55.55,0,0,1,0,.81A.62.62,0,0,1,56.55,41.85Z"/><path class="cls-2" d="M52.5,41.85a.6.6,0,0,1-.42-.16.55.55,0,0,1,0-.81l4.05-3.8a.61.61,0,0,1,.85,0,.53.53,0,0,1,0,.8l-4,3.81A.62.62,0,0,1,52.5,41.85Z"/><text class="cls-3" transform="translate(29.57 91.5) scale(0.93 1)"><tspan class="cls-4">L</tspan><tspan x="7.61" y="0">earn </tspan><tspan class="cls-5" x="39.73" y="0">M</tspan><tspan x="51.29" y="0">o</tspan><tspan class="cls-6" x="58.95" y="0">r</tspan><tspan class="cls-7" x="64.63" y="0">e</tspan></text><path class="cls-8" d="M60.48,10A50.16,50.16,0,1,1,10,60.12,50.31,50.31,0,0,1,60.48,10m0-10C27.13,0,0,27,0,60.12s27.13,60.12,60.48,60.12S121,93.27,121,60.12,93.83,0,60.48,0Z"/><path class="cls-9" d="M117.13,49.38l-1.86.35A55.78,55.78,0,0,0,60.48,4.67V2.8a57.29,57.29,0,1,0,56.65,46.58ZM114,50l-1.83.35A52.68,52.68,0,1,1,60.48,7.78V5.91A54.53,54.53,0,0,1,114,50Z"/></g></g></svg>