<svg xmlns="http://www.w3.org/2000/svg" viewBox="0 0 286.2 54.99"><defs><style>.cls-1{fill:#2c9464;}.cls-2{font-size:24.26px;font-family:NexaLight, Nexa Light;}.cls-2,.cls-4{fill:#fff;}.cls-3{letter-spacing:0.01em;}.cls-5{fill:#1e4531;}</style></defs><g id="Capa_2" data-name="Capa 2"><g id="OBJECTS"><rect class="cls-1" width="286.2" height="54.99" rx="10.77"/><text class="cls-2" transform="translate(46.6 35.99) scale(0.94 1)">LE<tspan class="cls-3" x="28.23" y="0">A</tspan><tspan x="45.31" y="0">RN MORE</tspan></text><path class="cls-4" d="M221.59,0h0a31.3,31.3,0,0,1-15.65,27.1l-.68.39.68.4A31.3,31.3,0,0,1,221.59,55h53.84A10.77,10.77,0,0,0,286.2,44.22V10.77A10.77,10.77,0,0,0,275.43,0Z"/><polygon class="cls-4" points="278.77 44.05 263.09 48.48 263.09 10.63 278.77 6.19 278.77 44.05"/><rect class="cls-4" x="228.24" y="10.63" width="33.42" height="37.86"/><path class="cls-5" d="M263.09,37.13a.54.54,0,0,1-.57-.52V16.13a.54.54,0,0,1,.57-.52.55.55,0,0,1,.58.52V36.61A.55.55,0,0,1,263.09,37.13Z"/><path class="cls-5" d="M263.09,49H229.68a.56.56,0,0,1-.58-.53V10.63a.56.56,0,0,1,.58-.53h33.41a.56.56,0,0,1,.58.53v2.54a.55.55,0,0,1-.58.52.54.54,0,0,1-.57-.52v-2H230.25V48h32.27V40.58a.54.54,0,0,1,.57-.52.55.55,0,0,1,.58.52v7.9A.56.56,0,0,1,263.09,49Z"/><polygon class="cls-5" points="229.68 10.5 229.68 48.48 242.73 44.24 242.73 6.25 229.68 10.5"/><path class="cls-5" d="M229.68,49a.67.67,0,0,1-.34-.1.52.52,0,0,1-.24-.43v-38a.54.54,0,0,1,.38-.5l13.06-4.24a.63.63,0,0,1,.52.06.51.51,0,0,1,.25.43v38a.52.52,0,0,1-.38.49L229.87,49A.63.63,0,0,1,229.68,49Zm.57-38.15V47.74l11.91-3.87V7Z"/><polygon class="cls-4" points="226.75 3.59 226.75 41.58 242.73 44.24 242.73 6.25 226.75 3.59"/><path class="cls-5" d="M242.73,44.76h-.1l-16-2.66a.53.53,0,0,1-.47-.51v-38a.49.49,0,0,1,.21-.4.6.6,0,0,1,.47-.11l16,2.66a.53.53,0,0,1,.47.51v38a.52.52,0,0,1-.21.4A.59.59,0,0,1,242.73,44.76Zm-15.4-3.62,14.83,2.47V6.69L227.33,4.22Z"/><path class="cls-5" d="M263.09,49a.59.59,0,0,1-.55-.37.51.51,0,0,1,.38-.65l15.27-4.33V6.9l-14.93,4.22a.58.58,0,0,1-.72-.34.52.52,0,0,1,.38-.65L278.6,5.69a.62.62,0,0,1,.51.08.49.49,0,0,1,.24.42V44a.53.53,0,0,1-.41.5L263.26,49A.47.47,0,0,1,263.09,49Z"/><path class="cls-5" d="M256.13,40.66a1.8,1.8,0,1,0,2,1.79A1.88,1.88,0,0,0,256.13,40.66Z"/><path class="cls-5" d="M256.13,39.77a.46.46,0,0,1-.48-.43V37.6a.47.47,0,0,1,.48-.44.46.46,0,0,1,.48.44v1.74A.45.45,0,0,1,256.13,39.77Zm0-3.48a.47.47,0,0,1-.48-.44V34.11a.46.46,0,0,1,.48-.43.45.45,0,0,1,.48.43v1.74A.46.46,0,0,1,256.13,36.29Zm0-3.48a.47.47,0,0,1-.48-.44,1.63,1.63,0,0,0-.59-1.24.4.4,0,0,1,0-.61.52.52,0,0,1,.68,0,2.44,2.44,0,0,1,.89,1.87.46.46,0,0,1-.47.44Zm-2.49-2.15h-1.93a.44.44,0,1,1,0-.87h1.93a.44.44,0,1,1,0,.87Zm-3.85,0h0a3,3,0,0,1-2-.92.41.41,0,0,1,.06-.62.51.51,0,0,1,.67.06,2,2,0,0,0,1.33.61.44.44,0,0,1,.45.46A.46.46,0,0,1,249.79,30.66Zm-2.23-2.39a.46.46,0,0,1-.48-.43V26.09a.49.49,0,0,1,1,0v1.75A.46.46,0,0,1,247.56,28.27Zm0-3.48a.47.47,0,0,1-.48-.44V22.61a.49.49,0,0,1,1,0v1.74A.47.47,0,0,1,247.56,24.79Zm0-3.49a.46.46,0,0,1-.48-.43V19.13a.49.49,0,0,1,1,0v1.74A.46.46,0,0,1,247.56,21.3Z"/><path class="cls-5" d="M249.5,17.37a.61.61,0,0,1-.41-.15l-3.87-3.51a.49.49,0,0,1,0-.73.61.61,0,0,1,.82,0l3.87,3.5a.5.5,0,0,1,0,.74A.63.63,0,0,1,249.5,17.37Z"/><path class="cls-5" d="M245.63,17.37a.63.63,0,0,1-.41-.15.5.5,0,0,1,0-.74l3.87-3.5a.61.61,0,0,1,.82,0,.49.49,0,0,1,0,.73L246,17.22A.61.61,0,0,1,245.63,17.37Z"/></g></g></svg>