<svg xmlns="http://www.w3.org/2000/svg" viewBox="0 0 120.96 120.24"><defs><style>.cls-1,.cls-6{fill:#1e4531;}.cls-2{fill:#2b9464;}.cls-3{fill:#010101;}.cls-4{fill:#e52722;}.cls-5{fill:#e52421;}.cls-6{font-size:13.41px;font-family:Nexa-Heavy, Nexa;font-weight:800;}.cls-7{letter-spacing:-0.01em;}.cls-8{letter-spacing:-0.03em;}</style></defs><g id="Capa_2" data-name="Capa 2"><g id="Capa_1-2" data-name="Capa 1"><path class="cls-1" d="M60.48,10A50.16,50.16,0,1,1,10,60.12,50.31,50.31,0,0,1,60.48,10m0-10C27.13,0,0,27,0,60.12s27.13,60.12,60.48,60.12S121,93.27,121,60.12,93.83,0,60.48,0Z"/><path class="cls-2" d="M117.13,49.38l-1.86.35A55.78,55.78,0,0,0,60.48,4.67V2.8a57.29,57.29,0,1,0,56.65,46.58ZM114,50l-1.83.35A52.68,52.68,0,1,1,60.48,7.78V5.91A54.53,54.53,0,0,1,114,50Z"/><path class="cls-3" d="M61,81.4a30.13,30.13,0,0,1-21.48-8.92,31.07,31.07,0,0,1,0-43.39,30.31,30.31,0,0,1,43,0,31,31,0,0,1,0,43.39A30.11,30.11,0,0,1,61,81.4Zm0-58.69A28.08,28.08,0,1,0,88.82,50.79,28,28,0,0,0,61,22.71Z"/><path class="cls-3" d="M61,75A24.24,24.24,0,1,1,85,50.79,24.17,24.17,0,0,1,61,75Zm0-45.93A21.7,21.7,0,1,0,82.5,50.79,21.58,21.58,0,0,0,61,29.09Z"/><path class="cls-4" d="M51.58,64.7a1.27,1.27,0,0,1-.89-.36,1.18,1.18,0,0,1-.09-1.78L71.46,38.39a1.21,1.21,0,0,1,1.79-.09,1.18,1.18,0,0,1,.09,1.78L52.57,64.25A1.29,1.29,0,0,1,51.58,64.7Z"/><path class="cls-5" d="M71.16,64a1.09,1.09,0,0,1-1-.44L50,39.68a1.33,1.33,0,0,1,.09-1.75,1.31,1.31,0,0,1,1.73.08L72,61.81a1.34,1.34,0,0,1-.08,1.75A.92.92,0,0,1,71.16,64Z"/><text class="cls-6" transform="translate(33.71 94.37) scale(0.93 1)"><tspan class="cls-7">L</tspan><tspan x="8.02" y="0">OG OU</tspan><tspan class="cls-8" x="53.67" y="0">T</tspan></text></g></g></svg>