<svg xmlns="http://www.w3.org/2000/svg" viewBox="0 0 88.64 109.22"><defs><style>.cls-1{fill:#010101;}.cls-1,.cls-2,.cls-3{fill-rule:evenodd;}.cls-2{fill:#fafafa;}.cls-3{fill:#e52521;}.cls-4{font-size:13.85px;fill:#1e4531;font-family:Nexa-Heavy, Nexa;font-weight:800;}.cls-5{letter-spacing:-0.01em;}.cls-6{letter-spacing:-0.01em;}.cls-7{letter-spacing:-0.02em;}.cls-8{letter-spacing:-0.01em;}</style></defs><g id="Capa_2" data-name="Capa 2"><g id="Capa_1-2" data-name="Capa 1"><g id="Layer_1"><path id="id_101" data-name="id 101" class="cls-1" d="M61.84,70.56A1.17,1.17,0,0,1,61,70.2L44.32,53.3,27.65,70.2a1.21,1.21,0,0,1-1.72,0l-6.55-6.65a1.22,1.22,0,0,1,0-1.73l16.67-16.9L19.38,28a1.22,1.22,0,0,1,0-1.73l6.55-6.65a1.21,1.21,0,0,1,1.72,0l16.67,16.9L61,19.64a1.2,1.2,0,0,1,1.71,0l6.56,6.65a1.24,1.24,0,0,1,0,1.73L52.59,44.92l16.67,16.9a1.24,1.24,0,0,1,0,1.73L62.7,70.2a1.21,1.21,0,0,1-.86.36ZM44.32,89.84C19.83,89.84,0,69.74,0,44.92S19.83,0,44.32,0A43.71,43.71,0,0,1,75.65,13.16a45.32,45.32,0,0,1,0,63.52A43.71,43.71,0,0,1,44.32,89.84Zm0-87.38c-23.1,0-41.9,19.05-41.9,42.46s18.8,42.46,41.9,42.46,41.89-19,41.89-42.46S67.42,2.46,44.32,2.46Zm0,47.88a1.17,1.17,0,0,1,.85.36L61.84,67.59l4.84-4.91L50,45.79a1.23,1.23,0,0,1,0-1.74L66.68,27.16l-4.84-4.91L45.17,39.14a1.2,1.2,0,0,1-1.71,0L26.79,22.25,22,27.16,38.62,44.05a1.25,1.25,0,0,1,0,1.74L22,62.68l4.84,4.91L43.46,50.7a1.21,1.21,0,0,1,.86-.36Z"/><path id="id_102" data-name="id 102" class="cls-2" d="M45.17,50.7,61.84,67.59l4.84-4.91L50,45.79a1.23,1.23,0,0,1,0-1.74L66.68,27.16l-4.84-4.91L45.17,39.14a1.2,1.2,0,0,1-1.71,0L26.79,22.25,22,27.16,38.62,44.05a1.25,1.25,0,0,1,0,1.74L22,62.68l4.84,4.91L43.46,50.7a1.21,1.21,0,0,1,.86-.36,1.17,1.17,0,0,1,.85.36Z"/><path id="id_103" data-name="id 103" class="cls-3" d="M44.32,36.54,61,19.64a1.2,1.2,0,0,1,1.71,0l6.56,6.65a1.24,1.24,0,0,1,0,1.73L52.59,44.92l16.67,16.9a1.24,1.24,0,0,1,0,1.73L62.7,70.2a1.21,1.21,0,0,1-.86.36A1.17,1.17,0,0,1,61,70.2L44.32,53.3,27.65,70.2a1.21,1.21,0,0,1-1.72,0l-6.55-6.65a1.22,1.22,0,0,1,0-1.73l16.67-16.9L19.38,28a1.22,1.22,0,0,1,0-1.73l6.55-6.65a1.21,1.21,0,0,1,1.72,0l16.67,16.9Zm41.89,8.38c0-23.41-18.79-42.46-41.89-42.46S2.42,21.51,2.42,44.92s18.8,42.46,41.9,42.46S86.21,68.33,86.21,44.92Z"/></g><text class="cls-4" transform="translate(7.57 105.47) scale(0.85 1)"><tspan class="cls-5">C</tspan><tspan x="9.56" y="0">er</tspan><tspan class="cls-6" x="24.07" y="0">r</tspan><tspan x="30.28" y="0">a</tspan><tspan class="cls-7" x="39.09" y="0">r</tspan><tspan x="45.14" y="0"> </tspan><tspan class="cls-8" x="48.38" y="0">s</tspan><tspan x="55.29" y="0">esión</tspan></text></g></g></svg>