<svg xmlns="http://www.w3.org/2000/svg" viewBox="0 0 120.96 120.24"><defs><style>.cls-1,.cls-4{fill:#fff;}.cls-1{stroke:#010101;stroke-miterlimit:10;}.cls-2{fill:#00432c;}.cls-3{fill:#010101;}.cls-5{font-size:11.72px;font-family:Nexa-Heavy, Nexa;font-weight:800;}.cls-10,.cls-5{fill:#1e4531;}.cls-6{letter-spacing:-0.01em;}.cls-7{letter-spacing:0em;}.cls-8{letter-spacing:0em;}.cls-9{letter-spacing:-0.01em;}.cls-11{fill:#2b9464;}</style></defs><g id="Capa_2" data-name="Capa 2"><g id="Capa_1-2" data-name="Capa 1"><path class="cls-1" d="M48.66,54.71Q45.44,64,42.22,73.33q5.6,1.26,11.22,2.42l2.43-18.63C53.45,56.37,51,55.57,48.66,54.71Z"/><path class="cls-1" d="M53.44,76.39H53.3C50,75.69,46.09,74.87,42.08,74a.63.63,0,0,1-.47-.84L48,54.5a.64.64,0,0,1,.34-.38.66.66,0,0,1,.5,0c2.28.82,4.69,1.63,7.18,2.4a.65.65,0,0,1,.46.7L54.09,75.83a.64.64,0,0,1-.27.44A.66.66,0,0,1,53.44,76.39ZM43.08,72.86c3.47.78,6.86,1.49,9.8,2.11l2.27-17.4c-2.1-.65-4.14-1.34-6.09-2Z"/><path class="cls-1" d="M64.52,54.71q1,9.3,2,18.62c-4.35.84-8.72,1.64-13.08,2.42l2.43-18.63C58.76,56.34,61.65,55.57,64.52,54.71Z"/><path class="cls-1" d="M53.44,76.39a.63.63,0,0,1-.45-.18.6.6,0,0,1-.2-.55L55.22,57a.65.65,0,0,1,.48-.55c3.06-.81,5.82-1.56,8.63-2.4a.65.65,0,0,1,.84.55l2,18.62a.66.66,0,0,1-.53.71c-4,.76-8.25,1.55-13.09,2.41Zm3-18.76L54.2,75c4.24-.75,8-1.46,11.6-2.14L64,55.55C61.52,56.27,59.09,56.93,56.46,57.63Z"/><path class="cls-1" d="M64.52,54.71q1,9.3,2,18.62c4.52.84,9.06,1.64,13.59,2.42q-3.21-9.31-6.43-18.63C70.61,56.36,67.55,55.56,64.52,54.71Z"/><path class="cls-1" d="M80.11,76.39H80c-5.24-.9-9.57-1.67-13.6-2.41a.66.66,0,0,1-.53-.57l-2-18.63a.67.67,0,0,1,.23-.56.66.66,0,0,1,.6-.13c2.9.81,6,1.63,9.15,2.41a.65.65,0,0,1,.46.42l6.43,18.63a.64.64,0,0,1-.12.63A.67.67,0,0,1,80.11,76.39Zm-13-3.61c3.61.67,7.46,1.35,12,2.14l-6-17.26c-2.73-.68-5.39-1.37-7.91-2.07Z"/><path class="cls-2" d="M78.25,36.77a17.46,17.46,0,0,0-34.91,0,17,17,0,0,0,4.52,11.57h0L60.8,61.85,73.73,48.34h0A17,17,0,0,0,78.25,36.77ZM60.8,43.66a6.9,6.9,0,1,1,7-6.89A6.94,6.94,0,0,1,60.8,43.66Z"/><path class="cls-3" d="M60.8,62.49a.66.66,0,0,1-.48-.2L47.39,48.79a17.71,17.71,0,0,1-4.7-12,18.11,18.11,0,0,1,36.21,0,17.71,17.71,0,0,1-4.69,12L61.27,62.29A.63.63,0,0,1,60.8,62.49Zm0-42.31A16.71,16.71,0,0,0,44,36.77a16.42,16.42,0,0,0,4.35,11.14l12.45,13,12.45-13a16.41,16.41,0,0,0,4.34-11.13A16.71,16.71,0,0,0,60.8,20.18Zm0,24.13a7.55,7.55,0,1,1,7.63-7.54A7.6,7.6,0,0,1,60.8,44.31Zm1.59-13.79c-4.37,0-7.92,2.76-7.92,6.16s3.55,6.17,7.92,6.17,7.93-2.77,7.93-6.17S66.76,30.52,62.39,30.52Z"/><path class="cls-4" d="M46.22,34.1h-.11a.54.54,0,0,1-.42-.64,15.28,15.28,0,0,1,7.87-10.19.56.56,0,0,1,.74.22.53.53,0,0,1-.23.73,14.2,14.2,0,0,0-7.31,9.47A.56.56,0,0,1,46.22,34.1Z"/><path class="cls-4" d="M57.61,22.9a.56.56,0,0,1-.54-.42.54.54,0,0,1,.42-.64,15,15,0,0,1,1.9-.29.54.54,0,1,1,.1,1.07,17.16,17.16,0,0,0-1.77.27Z"/><text class="cls-5" transform="translate(25.56 87.45) scale(0.91 1)"><tspan class="cls-6">E</tspan><tspan class="cls-7" x="7.72" y="0">ncue</tspan><tspan class="cls-8" x="35.11" y="0">n</tspan><tspan x="42.31" y="0">t</tspan><tspan class="cls-9" x="47.28" y="0">r</tspan><tspan class="cls-7" x="52.53" y="0">a un </tspan><tspan x="26.14" y="14.06">viaje</tspan></text><path class="cls-10" d="M60.48,10A50.16,50.16,0,1,1,10,60.12,50.31,50.31,0,0,1,60.48,10m0-10C27.13,0,0,27,0,60.12s27.13,60.12,60.48,60.12S121,93.27,121,60.12,93.83,0,60.48,0Z"/><path class="cls-11" d="M117.13,49.38l-1.86.35A55.78,55.78,0,0,0,60.48,4.67V2.8a57.29,57.29,0,1,0,56.65,46.58ZM114,50l-1.83.35A52.68,52.68,0,1,1,60.48,7.78V5.91A54.53,54.53,0,0,1,114,50Z"/></g></g></svg>