<svg xmlns="http://www.w3.org/2000/svg" viewBox="0 0 85.34 102.53"><defs><style>.cls-1{fill:#010101;}.cls-2{fill:#e52722;}.cls-3{fill:#e52421;}.cls-4{font-size:13.41px;fill:#1e4531;font-family:Nexa-Heavy, Nexa;font-weight:800;}.cls-5{letter-spacing:-0.01em;}.cls-6{letter-spacing:-0.03em;}</style></defs><g id="Capa_2" data-name="Capa 2"><g id="Capa_1-2" data-name="Capa 1"><path class="cls-1" d="M42.67,83.8A43,43,0,0,1,12.43,71.59a41.67,41.67,0,0,1,0-59.38A42.82,42.82,0,0,1,42.67,0,43,43,0,0,1,72.9,12.21a41.65,41.65,0,0,1,0,59.38A43,43,0,0,1,42.67,83.8Zm0-80.33C21.09,3.47,3.54,20.71,3.54,41.9S21.09,80.33,42.67,80.33,81.8,63,81.8,41.9,64.25,3.47,42.67,3.47Z"/><path class="cls-1" d="M43,76.32c-19,0-34.32-15.7-34.32-34.8S24.13,6.72,43,6.72s34.32,15.7,34.32,34.8A34.56,34.56,0,0,1,43,76.32Zm0-66A31,31,0,0,0,12.23,41.52,31,31,0,0,0,43,72.68,31,31,0,0,0,73.69,41.52,31,31,0,0,0,43,10.36Z"/><path class="cls-2" d="M27.93,63.36A2,2,0,0,1,26.46,60L57.63,22.32a1.76,1.76,0,0,1,2.68-.14A1.89,1.89,0,0,1,60.44,25l-31,37.72A1.9,1.9,0,0,1,27.93,63.36Z"/><path class="cls-3" d="M59.61,62.88a1.8,1.8,0,0,1-1.52-.67L26,25.42a2,2,0,0,1,.14-2.7,2.12,2.12,0,0,1,2.75.14L61,59.51a2,2,0,0,1-.14,2.7A1.48,1.48,0,0,1,59.61,62.88Z"/><text class="cls-4" transform="translate(15.18 98.72) scale(0.93 1)"><tspan class="cls-5">L</tspan><tspan x="8.02" y="0">OG OU</tspan><tspan class="cls-6" x="53.67" y="0">T</tspan></text></g></g></svg>