<svg xmlns="http://www.w3.org/2000/svg" viewBox="0 0 84.48 106.71"><defs><style>.cls-1{font-size:13.41px;fill:#1e4531;font-family:Nexa-Heavy, Nexa;font-weight:800;}.cls-2{letter-spacing:-0.01em;}.cls-3{letter-spacing:-0.03em;}.cls-4{fill:#010101;}.cls-4,.cls-5,.cls-6{fill-rule:evenodd;}.cls-5{fill:#fafafa;}.cls-6{fill:#e52521;}</style></defs><g id="Capa_2" data-name="Capa 2"><g id="Capa_1-2" data-name="Capa 1"><text class="cls-1" transform="translate(16.09 102.9) scale(0.93 1)"><tspan class="cls-2">L</tspan><tspan x="8.02" y="0">OG OU</tspan><tspan class="cls-3" x="53.67" y="0">T</tspan></text><g id="Layer_1"><path id="id_101" data-name="id 101" class="cls-4" d="M58.94,68.61a1.15,1.15,0,0,1-.82-.35L42.24,51.83,26.35,68.26a1.12,1.12,0,0,1-1.63,0L18.47,61.8a1.23,1.23,0,0,1,0-1.69L34.36,43.68,18.47,27.25a1.23,1.23,0,0,1,0-1.69l6.25-6.46a1.12,1.12,0,0,1,1.63,0L42.24,35.53,58.12,19.1a1.13,1.13,0,0,1,1.64,0L66,25.56a1.21,1.21,0,0,1,0,1.69L50.12,43.68,66,60.11a1.21,1.21,0,0,1,0,1.69l-6.24,6.46a1.15,1.15,0,0,1-.82.35ZM42.24,87.36C18.9,87.36,0,67.82,0,43.68S18.9,0,42.24,0A41.26,41.26,0,0,1,72.1,12.79a44.72,44.72,0,0,1,0,61.78A41.26,41.26,0,0,1,42.24,87.36Zm0-85c-22,0-39.93,18.52-39.93,41.29S20.22,85,42.24,85,82.16,66.45,82.16,43.68,64.25,2.39,42.24,2.39Zm0,46.56a1.09,1.09,0,0,1,.81.35L58.94,65.73,63.56,61,47.67,44.52a1.21,1.21,0,0,1,0-1.68L63.56,26.41l-4.62-4.78L43.05,38.06a1.12,1.12,0,0,1-1.63,0L25.53,21.63l-4.61,4.78L36.81,42.84a1.21,1.21,0,0,1,0,1.68L20.92,61l4.61,4.78L41.42,49.3a1.11,1.11,0,0,1,.82-.35Z"/><path id="id_102" data-name="id 102" class="cls-5" d="M43.05,49.3,58.94,65.73,63.56,61,47.67,44.52a1.21,1.21,0,0,1,0-1.68L63.56,26.41l-4.62-4.78L43.05,38.06a1.12,1.12,0,0,1-1.63,0L25.53,21.63l-4.61,4.78L36.81,42.84a1.21,1.21,0,0,1,0,1.68L20.92,61l4.61,4.78L41.42,49.3a1.11,1.11,0,0,1,.82-.35,1.09,1.09,0,0,1,.81.35Z"/><path id="id_103" data-name="id 103" class="cls-6" d="M42.24,35.53,58.12,19.1a1.13,1.13,0,0,1,1.64,0L66,25.56a1.21,1.21,0,0,1,0,1.69L50.12,43.68,66,60.11a1.21,1.21,0,0,1,0,1.69l-6.24,6.46a1.14,1.14,0,0,1-1.64,0L42.24,51.83,26.35,68.26a1.12,1.12,0,0,1-1.63,0L18.47,61.8a1.23,1.23,0,0,1,0-1.69L34.36,43.68,18.47,27.25a1.23,1.23,0,0,1,0-1.69l6.25-6.46a1.12,1.12,0,0,1,1.63,0L42.24,35.53Zm39.92,8.15c0-22.77-17.91-41.29-39.92-41.29S2.31,20.91,2.31,43.68,20.22,85,42.24,85,82.16,66.45,82.16,43.68Z"/></g></g></g></svg>